<svg xmlns="http://www.w3.org/2000/svg" viewBox="0 0 900 300" width="900" height="300" role="img" aria-label="위건 WI-GEON, Unity Client Developer"><title>위건 WI-GEON — Unity Client Developer</title><defs><linearGradient id="sky" x1="0" y1="0" x2="0" y2="1"><stop offset="0" stop-color="#4B5563"/><stop offset="1" stop-color="#2E343C"/></linearGradient><linearGradient id="ground" x1="0" y1="0" x2="0" y2="1"><stop offset="0" stop-color="#2A2F36"/><stop offset="1" stop-color="#1E2227"/></linearGradient><linearGradient id="fog" x1="0" y1="0" x2="0" y2="1"><stop offset="0" stop-color="#3A414B" stop-opacity=".9"/><stop offset="1" stop-color="#3A414B" stop-opacity="0"/></linearGradient><radialGradient id="glow"><stop offset="0" stop-color="#7FE3D0" stop-opacity=".45"/><stop offset=".55" stop-color="#7FE3D0" stop-opacity=".12"/><stop offset="1" stop-color="#7FE3D0" stop-opacity="0"/></radialGradient><clipPath id="round"><rect width="900" height="300" rx="10"/></clipPath><style>
    .ui{font-family:Inter,'Segoe UI','Apple SD Gothic Neo','Malgun Gothic','Noto Sans KR','Noto Sans CJK KR',sans-serif}
    .grid line{stroke:#FFFFFF;stroke-opacity:.075;stroke-width:1}
    @keyframes bob{from{transform:translateY(0)}to{transform:translateY(-10px)}}
    @keyframes sh{from{transform:scale(1);opacity:.32}to{transform:scale(.78);opacity:.18}}
    .spirit{animation:bob 2.6s ease-in-out infinite alternate}
    .shadow{transform-box:fill-box;transform-origin:center;animation:sh 2.6s ease-in-out infinite alternate;opacity:.3}
    @media (prefers-reduced-motion:reduce){.spirit,.shadow{animation:none}}
  </style></defs><g clip-path="url(#round)"><rect width="900" height="300" fill="#191919"/><rect x="0" y="26" width="900" height="156" fill="url(#sky)"/><rect x="0" y="182" width="900" height="118" fill="url(#ground)"/><g class="grid"><line x1="450" y1="182" x2="-880" y2="300" /><line x1="450" y1="182" x2="-785" y2="300" /><line x1="450" y1="182" x2="-690" y2="300" /><line x1="450" y1="182" x2="-595" y2="300" /><line x1="450" y1="182" x2="-500" y2="300" /><line x1="450" y1="182" x2="-405" y2="300" /><line x1="450" y1="182" x2="-310" y2="300" /><line x1="450" y1="182" x2="-215" y2="300" /><line x1="450" y1="182" x2="-120" y2="300" /><line x1="450" y1="182" x2="-25" y2="300" /><line x1="450" y1="182" x2="70" y2="300" /><line x1="450" y1="182" x2="165" y2="300" /><line x1="450" y1="182" x2="260" y2="300" /><line x1="450" y1="182" x2="355" y2="300" /><line x1="450" y1="182" x2="450" y2="300" /><line x1="450" y1="182" x2="545" y2="300" /><line x1="450" y1="182" x2="640" y2="300" /><line x1="450" y1="182" x2="735" y2="300" /><line x1="450" y1="182" x2="830" y2="300" /><line x1="450" y1="182" x2="925" y2="300" /><line x1="450" y1="182" x2="1020" y2="300" /><line x1="450" y1="182" x2="1115" y2="300" /><line x1="450" y1="182" x2="1210" y2="300" /><line x1="450" y1="182" x2="1305" y2="300" /><line x1="450" y1="182" x2="1400" y2="300" /><line x1="450" y1="182" x2="1495" y2="300" /><line x1="450" y1="182" x2="1590" y2="300" /><line x1="450" y1="182" x2="1685" y2="300" /><line x1="450" y1="182" x2="1780" y2="300" /><line x1="0" y1="184" x2="900" y2="184" /><line x1="0" y1="187" x2="900" y2="187" /><line x1="0" y1="192" x2="900" y2="192" /><line x1="0" y1="199" x2="900" y2="199" /><line x1="0" y1="208" x2="900" y2="208" /><line x1="0" y1="220" x2="900" y2="220" /><line x1="0" y1="235" x2="900" y2="235" /><line x1="0" y1="254" x2="900" y2="254" /><line x1="0" y1="277" x2="900" y2="277" /></g><rect x="0" y="180" width="900" height="26" fill="url(#fog)"/><rect x="0" y="0" width="900" height="26" fill="#282828"/><rect x="6" y="3" width="69.0" height="23" rx="3" fill="#383838"/><rect x="6" y="3" width="69.0" height="2" rx="1" fill="#3A86E0"/><text x="18" y="19" class="ui" font-size="11.5" font-weight="600" fill="#E4E4E4">Scene</text><text x="93.0" y="19" class="ui" font-size="11.5" font-weight="600" fill="#7A7A7A">Game</text><text x="160.6" y="19" class="ui" font-size="11.5" font-weight="600" fill="#7A7A7A">Profiler</text><text x="780" y="17" class="ui" font-size="11" fill="#7A7A7A">Shaded</text><rect x="834" y="6" width="22" height="14" rx="3" fill="#383838"/><text x="845" y="17" text-anchor="middle" class="ui" font-size="9.5" font-weight="700" fill="#A8A8A8">2D</text><circle cx="874" cy="13" r="5" fill="none" stroke="#7A7A7A" stroke-width="1.4"/><line x1="874" y1="18" x2="874" y2="21" stroke="#7A7A7A" stroke-width="1.4"/><path d="M128,79 Q128,86 135,86 Q128,86 128,93 Q128,86 121,86 Q128,86 128,79 Z" fill="#7FE3D0" opacity="0.8"/><path d="M262,67 Q262,72 267,72 Q262,72 262,77 Q262,72 257,72 Q262,72 262,67 Z" fill="#7FE3D0" opacity="0.6"/><path d="M252,166 Q252,170 256,170 Q252,170 252,174 Q252,170 248,170 Q252,170 252,166 Z" fill="#7FE3D0" opacity="0.5"/><path d="M140,164.5 Q140,168 143.5,168 Q140,168 140,171.5 Q140,168 136.5,168 Q140,168 140,164.5 Z" fill="#7FE3D0" opacity="0.45"/><g transform="translate(196,124)"><circle r="74" fill="url(#glow)"/><g class="spirit"><path d="M-7,-30 C-4,-44 5,-49 12,-58 C10,-46 13,-38 8,-30 Z" fill="#7FE3D0" opacity=".9"/><path d="M0,-32 C19,-32 30,-15 30,3 C30,22 17,32 0,32 C-17,32 -30,22 -30,3 C-30,-15 -19,-32 0,-32 Z" fill="#7FE3D0"/><path d="M-17,-19 C-12,-26 -4,-28 3,-27" stroke="#FFFFFF" stroke-width="3.2" stroke-linecap="round" fill="none" opacity=".55"/><ellipse cx="-10" cy="2" rx="3.6" ry="4.8" fill="#1F4C45"/><ellipse cx="10" cy="2" rx="3.6" ry="4.8" fill="#1F4C45"/><circle cx="-8.6" cy="0.2" r="1.2" fill="#fff"/><circle cx="11.4" cy="0.2" r="1.2" fill="#fff"/><ellipse cx="-18" cy="11" rx="4.5" ry="2.6" fill="#FF7A9A" opacity=".5"/><ellipse cx="18" cy="11" rx="4.5" ry="2.6" fill="#FF7A9A" opacity=".5"/><path d="M-4,10 Q0,14 4,10" stroke="#1F4C45" stroke-width="2" stroke-linecap="round" fill="none"/></g></g><ellipse class="shadow" cx="196" cy="216" rx="26" ry="6" fill="#000"/><text x="468" y="150" text-anchor="middle" class="ui" font-size="80" font-weight="800" letter-spacing="1"
        fill="none" stroke="#F2A33A" stroke-width="6" stroke-linejoin="round">WI-GEON</text><text x="468" y="150" text-anchor="middle" class="ui" font-size="80" font-weight="800" letter-spacing="1" fill="#F4F4F4">WI-GEON</text><line x1="700" y1="132" x2="746" y2="132" stroke="#E0493A" stroke-width="2.4"/><polygon points="758,132 745,126 745,138" fill="#E0493A"/><line x1="700" y1="132" x2="700" y2="86" stroke="#8BCB45" stroke-width="2.4"/><polygon points="700,74 694,87 706,87" fill="#8BCB45"/><line x1="700" y1="132" x2="674" y2="154" stroke="#3A86E0" stroke-width="2.4"/><polygon points="665,162 681,157 673,146" fill="#3A86E0"/><rect x="706" y="112" width="14" height="14" fill="#3A86E0" opacity=".55"/><rect x="697.5" y="129.5" width="5" height="5" fill="#EDEDED"/><circle cx="846" cy="74" r="30" fill="#000" opacity=".18"/><line x1="846" y1="74" x2="845.3" y2="74.5" stroke="#8A8A8A" stroke-width="1.6"/><polygon points="836.6,79.8 843.0,70.9 847.5,78.0" fill="#8A8A8A"/><line x1="846" y1="74" x2="846.0" y2="75.0" stroke="#8A8A8A" stroke-width="1.6"/><polygon points="846.0,87.0 841.0,75.0 851.0,75.0" fill="#8A8A8A"/><line x1="846" y1="74" x2="845.0" y2="74.0" stroke="#8A8A8A" stroke-width="1.6"/><polygon points="833.0,74.0 845.0,69.0 845.0,79.0" fill="#8A8A8A"/><line x1="846" y1="74" x2="854.0" y2="74.0" stroke="#E0493A" stroke-width="1.6"/><polygon points="866.0,74.0 854.0,79.0 854.0,69.0" fill="#E0493A"/><line x1="846" y1="74" x2="846.0" y2="66.0" stroke="#8BCB45" stroke-width="1.6"/><polygon points="846.0,54.0 851.0,66.0 841.0,66.0" fill="#8BCB45"/><line x1="846" y1="74" x2="851.8" y2="70.4" stroke="#3A86E0" stroke-width="1.6"/><polygon points="860.4,65.0 854.0,74.0 849.5,66.8" fill="#3A86E0"/><rect x="841" y="69" width="10" height="10" rx="1.5" fill="#CFCFCF"/><text x="846" y="120" text-anchor="middle" class="ui" font-size="10.5" fill="#C9C9C9">Persp</text><text x="468" y="206" text-anchor="middle" class="ui" font-size="21" font-weight="700" fill="#E8E8E8">위건 · Unity Client Developer</text><text x="468" y="234" text-anchor="middle" class="ui" font-size="14.5" fill="#AEB6BF">게임 규칙은 엔진에서 떼어내 테스트하고, 성능은 숫자로 확인합니다</text></g><rect x=".5" y=".5" width="899" height="299" rx="10" fill="none" stroke="#0E0E0E"/></svg>